<?xml version="1.0" encoding="utf-8"?>
<!-- Generator: Adobe Illustrator 16.0.0, SVG Export Plug-In . SVG Version: 6.00 Build 0)  -->
<!DOCTYPE svg PUBLIC "-//W3C//DTD SVG 1.1//EN" "http://www.w3.org/Graphics/SVG/1.1/DTD/svg11.dtd">
<svg version="1.1" id="Layer_1" xmlns="http://www.w3.org/2000/svg" xmlns:xlink="http://www.w3.org/1999/xlink" x="0px" y="0px"
	 width="207.75px" height="289.5px" viewBox="0 0 207.75 289.5" enable-background="new 0 0 207.75 289.5" xml:space="preserve">
<g id="Слой_x0020_1">
	<path fill="#434242" d="M10.732,0H197.02c5.927,0,10.73,4.805,10.73,10.731v268.036c0,5.928-4.805,10.732-10.73,10.732H10.732
		C4.805,289.5,0,284.693,0,278.768V10.732C0,4.805,4.806,0,10.732,0z"/>
	<g id="_821958416">
		<path fill="#FEFEFE" d="M103.873,68.621c38.758,0,70.181,31.42,70.181,70.18c0,38.76-31.42,70.182-70.181,70.182
			c-38.758,0-70.181-31.42-70.181-70.182C33.692,100.043,65.112,68.621,103.873,68.621z M103.873,75.353
			c35.042,0,63.448,28.406,63.448,63.447c0,35.043-28.406,63.45-63.448,63.45s-63.448-28.406-63.448-63.45
			C40.424,103.76,68.831,75.353,103.873,75.353z"/>
		<path fill="#434242" d="M113.78,191.33H94.198v-69.302h19.582V191.33z M103.835,82.794l12.479,12.938l-12.479,13.055l-12.4-13.055
			L103.835,82.794z"/>
	</g>
</g>
</svg>
