<?xml version="1.0" encoding="utf-8"?>
<!-- Generator: Adobe Illustrator 16.0.0, SVG Export Plug-In . SVG Version: 6.00 Build 0)  -->
<!DOCTYPE svg PUBLIC "-//W3C//DTD SVG 1.1//EN" "http://www.w3.org/Graphics/SVG/1.1/DTD/svg11.dtd">
<svg version="1.1" id="Layer_1" xmlns="http://www.w3.org/2000/svg" xmlns:xlink="http://www.w3.org/1999/xlink" x="0px" y="0px"
	 width="207.75px" height="289.5px" viewBox="0 0 207.75 289.5" enable-background="new 0 0 207.75 289.5" xml:space="preserve">
<g id="Слой_x0020_1">
	<g id="_733068352">
		<path fill="#434242" d="M10.729,0h186.287c5.928,0,10.732,4.805,10.732,10.731v268.036c0,5.928-4.805,10.732-10.732,10.732H10.729
			c-5.927,0-10.73-4.807-10.73-10.732V10.731C-0.002,4.805,4.802,0,10.729,0z"/>
		<path fill="#FEFEFE" d="M109.137,58.924c43.187,2.716,77.371,38.597,77.371,82.466c0,13.175-3.09,25.628-8.572,36.681
			l11.342,6.547l-5.267,9.123l-11.348-6.551c-14.813,22.209-40.094,36.838-68.791,36.838c-28.698,0-53.979-14.631-68.791-36.838
			l-11.348,6.551l-5.268-9.123l11.342-6.547c-5.485-11.053-8.572-23.506-8.572-36.681c0-43.87,34.188-79.748,77.372-82.466V45.811
			h10.53L109.137,58.924L109.137,58.924z M109.137,74.198v29.057h11.613l-8.439,16.996l-8.438,16.994l-8.438-16.994l-8.438-16.996
			h11.613V74.198c-34.76,2.688-62.128,31.743-62.128,67.191c0,10.396,2.355,20.247,6.563,29.04l25.171-14.533l-5.805-10.057
			l18.938-1.189l18.938-1.188L89.79,159.27l-10.5,15.805l-5.805-10.057l-25.16,14.527c12.15,17.656,32.499,29.24,55.553,29.24
			c23.055,0,43.404-11.58,55.554-29.24l-25.16-14.527l-5.806,10.057l-10.5-15.805l-10.499-15.807l18.938,1.188l18.938,1.189
			l-5.805,10.057l25.172,14.533c4.206-8.793,6.562-18.641,6.562-29.04c0-35.448-27.367-64.503-62.127-67.191H109.137z"/>
	</g>
</g>
</svg>
