<?xml version="1.0" encoding="utf-8"?>
<!-- Generator: Adobe Illustrator 16.0.0, SVG Export Plug-In . SVG Version: 6.00 Build 0)  -->
<!DOCTYPE svg PUBLIC "-//W3C//DTD SVG 1.1//EN" "http://www.w3.org/Graphics/SVG/1.1/DTD/svg11.dtd">
<svg version="1.1" id="Layer_1" xmlns="http://www.w3.org/2000/svg" xmlns:xlink="http://www.w3.org/1999/xlink" x="0px" y="0px"
	 width="207.75px" height="289.5px" viewBox="0 0 207.75 289.5" enable-background="new 0 0 207.75 289.5" xml:space="preserve">
<g id="Слой_x0020_1">
	<g id="_818729600">
		<path fill="#434242" d="M10.732,0h186.287c5.928,0,10.731,4.805,10.731,10.73v268.035c0,5.928-4.805,10.732-10.731,10.732H10.732
			C4.804,289.499,0,284.692,0,278.766V10.733C0,4.805,4.806,0,10.732,0z"/>
		<path fill="#FEFEFE" d="M127.248,55.184l25.396,14.662l8.438-14.615c1.293-2.24,0.521-5.131-1.721-6.424l-17.248-9.961
			c-2.24-1.293-5.131-0.52-6.424,1.721l-8.438,14.615L127.248,55.184z M170.371,240.161H37.468v-0.051l-0.088,0.051l0.235-29.729
			l86.865-150.453l25.396,14.66L63.011,225.094l-16.095,9.461h123.454V240.161z M39.943,223.274c4.006,0.313,8.51,2.91,10.783,6.225
			c3.939-2.305,7.878-4.607,11.817-6.912l-0.247-10.363l-10.602,3.143l-2.577-10.752l-9.099,4.971
			c-0.025,4.563-0.052,9.127-0.079,13.689H39.943L39.943,223.274z"/>
	</g>
</g>
</svg>
