<?xml version="1.0" encoding="utf-8"?>
<!-- Generator: Adobe Illustrator 16.0.0, SVG Export Plug-In . SVG Version: 6.00 Build 0)  -->
<!DOCTYPE svg PUBLIC "-//W3C//DTD SVG 1.1//EN" "http://www.w3.org/Graphics/SVG/1.1/DTD/svg11.dtd">
<svg version="1.1" id="Layer_1" xmlns="http://www.w3.org/2000/svg" xmlns:xlink="http://www.w3.org/1999/xlink" x="0px" y="0px"
	 width="207.752px" height="289.5px" viewBox="0 0 207.752 289.5" enable-background="new 0 0 207.752 289.5" xml:space="preserve">
<g id="Слой_x0020_1">
	<g id="_818729024">
		<path fill="#434242" d="M10.732,0H197.02c5.928,0,10.732,4.805,10.732,10.731v268.036c0,5.928-4.807,10.732-10.732,10.732H10.732
			C4.805,289.5,0,284.693,0,278.768V10.732C0,4.805,4.805,0,10.732,0z"/>
		<g>
			<path fill="#FEFEFE" d="M58.012,159.367v-3.342c0-3.297,2.318-8.809,6.074-8.809c9.201,0,9.754,22.477,0.91,22.477
				C61.197,169.693,58.012,163.254,58.012,159.367z M30.676,107.127v78.058c0,6.916,6.195,8.262,10.834,10.426l28.148,12.551
				c2.633,1.275,25.023,11.342,26.018,11.342c2.281,0,5.164-0.705,5.164-3.645v-81.704c0-2.688-3.924-4.11-6.594-5.254
				l-24.998-11.145c-2.727-1.226-5.557-2.342-8.193-3.654c-1.256-0.623-2.848-1.307-4.211-1.862
				c-1.281-0.521-2.807-1.216-4.191-1.882l-10.535-4.654c-3.234-1.564-4.521-2.533-7.791-2.533c-1.715,0-3.646,2.235-3.646,3.947
				L30.676,107.127z"/>
			<path fill="#FEFEFE" d="M129.084,193.686c-6.23,0-8.16-12.203-4.623-18.291c3.139-5.398,7.479-5.494,9.973-1.029
				C138.578,181.789,134.4,193.686,129.084,193.686z M155.205,149.037c-9.389,0-8.082-22.475,0.607-22.475
				c5.891,0,8.16,11.534,4.658,18.026C159.553,146.287,157.549,149.037,155.205,149.037z M106.912,134.761v80.489
				c0,3.131,2.088,4.252,4.857,4.252c1.854,0,3.027-0.99,4.469-1.607l56.082-25.014c2.557-1.277,4.752-4.002,4.752-7.701v-78.058
				c0-2.233-1.859-3.948-4.859-3.948c-1.754,0-3.016,0.955-4.295,1.477c-7.984,3.246-21.367,9.493-29.412,13.107
				c-5.592,2.515-11.043,5.021-16.797,7.5c-2.881,1.239-5.59,2.477-8.414,3.736l-4.145,1.931c-1.256,0.776-2.236,1.928-2.236,3.838
				L106.912,134.761L106.912,134.761z"/>
			<path fill="#FEFEFE" d="M92.637,94.064c0-4.918,6.541-6.984,11.846-6.984c8.561,0,14.928,7.115,7.09,11.647
				c-6.703,3.875-18.936,0.983-18.936-4.66V94.064z M103.203,63.996h1.35c2.781,0.191,5.295,1.553,8.957,3.12l33.537,14.147
				c2.848,1.176,5.432,2.364,8.328,3.515c2.889,1.148,5.615,2.309,8.342,3.504c2.277,1.001,6.674,2.144,6.674,5.173
				c0,4.222-1.475,4.399-4.549,5.777l-8.615,3.838c-7.344,3.556-15.861,6.871-23.484,10.534c-1.455,0.697-2.709,1.219-4.227,1.848
				c-3.82,1.589-23.436,10.969-25.643,10.969c-2.369,0-28.797-12.569-34.449-14.916l-29.83-13.302
				c-2.01-1.24-2.234-2.524-2.234-4.748c0-1.633,1.436-2.825,2.627-3.445L69.24,77.653c9.541-4.188,20.004-8.221,29.477-12.436
				c1.695-0.754,3.145-1.131,4.484-1.222H103.203z M137.285,87.077c4.41,0,11.238,2.142,11.238,6.075v1.216
				c0,3.501-6.105,6.074-10.023,6.074c-3.395,0-6.184,0.021-9.063-1.87c-7.428-4.879-1.037-11.495,7.85-11.495H137.285z
				 M71.984,100.442h-2.732c-3.918,0-10.023-2.573-10.023-6.074v-0.913c0-5.109,11.506-8.646,18.633-4.659
				c5.107,2.856,4.77,7.379,0.41,9.73c-1.527,0.825-4.1,1.913-6.287,1.913V100.442L71.984,100.442z"/>
		</g>
	</g>
</g>
</svg>
